<?xml version="1.0" standalone="no"?>
<!DOCTYPE svg PUBLIC "-//W3C//DTD SVG 20010904//EN"
 "http://www.w3.org/TR/2001/REC-SVG-20010904/DTD/svg10.dtd">
<svg version="1.0" xmlns="http://www.w3.org/2000/svg"
 width="512.000000pt" height="512.000000pt" viewBox="0 0 512.000000 512.000000"
 preserveAspectRatio="xMidYMid meet">
<metadata>
Created by potrace 1.14, written by Peter Selinger 2001-2017
</metadata>
<g transform="translate(0.000000,512.000000) scale(0.100000,-0.100000)"
fill="#000000" stroke="none">
<path d="M0 2560 l0 -2560 2560 0 2560 0 0 2560 0 2560 -2560 0 -2560 0 0
-2560z m2570 2354 c0 -8 4 -22 9 -32 5 -9 12 -25 15 -34 4 -15 18 -18 78 -18
l73 -1 -34 -27 c-19 -15 -46 -36 -59 -48 l-25 -20 21 -59 c12 -32 20 -61 18
-63 -2 -2 -26 13 -54 32 -27 20 -53 36 -57 36 -4 0 -30 -16 -57 -36 -28 -19
-52 -34 -54 -31 -2 2 5 30 16 63 l20 59 -38 32 c-20 18 -45 35 -54 39 -39 12
-14 24 51 24 63 0 70 2 77 22 17 53 35 88 44 83 6 -3 10 -13 10 -21z m-615
-196 l21 -53 62 -3 c34 -2 62 -6 62 -10 0 -4 -22 -24 -49 -44 l-49 -37 19 -51
c31 -81 24 -88 -36 -40 -21 17 -45 30 -55 30 -9 0 -38 -16 -64 -35 -51 -39
-55 -34 -31 35 8 23 15 48 15 55 0 7 -24 30 -52 52 l-53 38 69 5 c74 5 70 2
100 93 9 29 20 20 41 -35z m1254 -3 l17 -50 70 -5 69 -5 -52 -38 c-29 -22 -53
-44 -53 -51 0 -7 7 -35 15 -62 21 -69 20 -69 -31 -29 -26 19 -55 35 -64 35
-10 0 -34 -13 -55 -30 -58 -46 -65 -41 -40 30 21 61 20 66 -30 100 -25 17 -45
35 -45 40 0 5 28 10 62 12 l63 3 19 53 c10 29 23 51 28 50 6 -2 18 -26 27 -53z
m-1712 -445 c23 -68 30 -73 90 -67 29 3 55 2 58 -3 2 -4 -18 -23 -45 -41 -27
-19 -50 -39 -50 -45 0 -6 7 -31 16 -57 9 -26 14 -52 12 -58 -2 -5 -24 6 -48
25 -25 20 -50 36 -55 36 -6 0 -32 -16 -60 -35 -27 -20 -51 -32 -53 -27 -1 4 6
33 17 65 l20 56 -55 39 c-30 21 -51 42 -48 45 4 4 24 4 45 1 66 -11 83 -1 104
61 11 30 23 54 28 52 5 -1 16 -23 24 -47z m2168 -13 c20 -53 40 -63 104 -53
21 3 41 3 45 -1 3 -3 -19 -24 -50 -46 -40 -29 -53 -44 -49 -56 19 -49 36 -103
32 -107 -2 -2 -26 12 -53 31 -27 19 -53 35 -59 35 -5 0 -30 -16 -55 -36 -24
-19 -46 -30 -48 -25 -2 6 3 32 12 58 9 26 16 51 16 57 0 6 -23 26 -50 45 -27
18 -48 37 -45 41 2 3 28 5 57 2 65 -5 68 -2 102 102 8 25 19 13 41 -47z
m-2345 -576 c0 -29 29 -91 43 -92 6 0 36 0 65 1 28 1 52 -3 52 -8 0 -6 -22
-27 -50 -47 -54 -40 -55 -45 -23 -124 8 -18 12 -35 9 -38 -3 -3 -28 11 -56 31
-27 20 -54 36 -59 36 -4 0 -32 -19 -61 -42 -40 -32 -52 -38 -48 -23 4 11 13
42 21 69 l16 48 -32 29 c-17 16 -40 32 -49 35 -10 3 -18 12 -18 20 0 12 11 15
48 14 76 -3 79 -2 92 33 25 68 30 77 40 77 5 0 10 -8 10 -19z m2511 -37 l16
-49 66 -3 c49 -2 67 -7 67 -17 0 -7 -8 -16 -18 -19 -9 -3 -32 -19 -49 -35
l-33 -29 16 -49 c8 -26 18 -57 21 -67 5 -14 -8 -8 -49 22 -30 23 -58 42 -61
42 -4 0 -30 -16 -57 -36 -28 -20 -53 -34 -55 -32 -3 3 4 31 15 63 11 32 20 59
20 61 0 1 -22 19 -50 39 -27 20 -50 41 -50 47 0 6 22 9 53 8 28 -2 58 -2 64
-1 14 1 43 64 43 93 0 36 25 13 41 -38z m-2335 -619 c19 -59 18 -58 96 -55 71
2 76 -8 20 -46 -28 -18 -53 -38 -57 -44 -3 -6 1 -35 10 -66 9 -31 14 -59 11
-62 -4 -3 -16 4 -29 14 -12 11 -35 28 -50 38 -28 17 -28 17 -78 -19 -28 -20
-53 -34 -56 -31 -3 3 3 30 14 60 11 30 17 58 14 63 -3 5 -27 24 -53 43 -27 18
-48 37 -48 42 0 5 24 9 53 8 75 -2 87 -1 87 9 0 13 38 101 44 101 3 0 13 -25
22 -55z m2169 -7 c19 -51 18 -51 103 -48 28 1 52 -3 52 -8 0 -5 -25 -27 -55
-48 -40 -27 -54 -42 -49 -53 14 -35 33 -105 30 -109 -2 -2 -27 13 -56 34 l-51
37 -52 -36 c-29 -20 -53 -32 -55 -27 -2 6 4 33 14 62 l17 52 -29 23 c-16 13
-41 31 -56 41 -43 25 -34 33 37 31 36 -1 70 2 74 7 5 5 16 31 26 57 20 54 25
52 50 -15z m-1710 -450 l21 -53 67 -3 c65 -3 86 -14 50 -27 -10 -3 -36 -21
-57 -39 -30 -26 -37 -38 -30 -48 14 -18 38 -97 32 -103 -3 -3 -25 11 -49 30
-24 19 -50 35 -58 35 -7 0 -35 -16 -62 -36 -27 -20 -49 -32 -49 -26 0 5 7 31
15 58 8 27 15 54 15 60 0 6 -26 28 -57 50 l-57 39 73 5 c80 5 75 1 105 93 9
29 20 20 41 -35z m1251 0 l19 -53 74 -5 74 -5 -57 -39 c-31 -21 -56 -44 -56
-50 0 -7 7 -36 16 -65 8 -29 14 -55 11 -57 -2 -2 -24 12 -48 31 -24 19 -50 35
-58 35 -7 0 -35 -16 -62 -36 -56 -41 -60 -34 -30 46 l19 51 -60 42 -60 42 73
5 72 5 20 53 c11 28 23 52 27 52 4 0 16 -24 26 -52z m-628 -160 c20 -63 27
-68 96 -68 l61 -1 -26 -22 c-14 -12 -38 -31 -54 -42 l-28 -21 21 -59 c12 -32
19 -61 17 -64 -3 -2 -25 10 -49 27 -55 40 -73 40 -121 2 -43 -34 -61 -38 -50
-12 4 9 10 29 13 45 2 15 8 30 13 33 20 12 6 33 -41 65 -27 19 -50 37 -50 41
0 4 28 8 61 10 43 2 64 8 69 18 4 8 12 25 18 37 7 13 12 30 12 38 0 31 26 13
38 -27z m289 -705 c94 -41 133 -68 197 -139 63 -69 114 -167 147 -279 21 -72
24 -100 24 -270 0 -250 -24 -353 -117 -502 -96 -153 -225 -226 -443 -252 -128
-16 -647 -15 -663 1 -9 9 -12 187 -12 738 0 400 3 730 7 734 5 4 183 6 398 4
l390 -4 72 -31z"/>
<path d="M2222 1004 l3 -559 231 2 c211 2 236 4 290 24 81 30 123 60 165 116
70 94 103 202 115 378 9 130 -11 258 -53 355 -25 56 -90 137 -135 168 -85 57
-121 64 -381 69 l-237 5 2 -558z"/>
</g>
</svg>
